<svg width="24" height="24" viewBox="0 0 24 24" fill="none" xmlns="http://www.w3.org/2000/svg">
<path d="M18.3002 5.70999C18.2077 5.61729 18.0978 5.54374 17.9768 5.49356C17.8559 5.44338 17.7262 5.41755 17.5952 5.41755C17.4643 5.41755 17.3346 5.44338 17.2136 5.49356C17.0926 5.54374 16.9827 5.61729 16.8902 5.70999L12.0002 10.59L7.11022 5.69999C7.01764 5.60741 6.90773 5.53397 6.78677 5.48387C6.6658 5.43376 6.53615 5.40797 6.40522 5.40797C6.27429 5.40797 6.14464 5.43376 6.02368 5.48387C5.90272 5.53397 5.79281 5.60741 5.70022 5.69999C5.60764 5.79258 5.5342 5.90249 5.4841 6.02345C5.43399 6.14442 5.4082 6.27406 5.4082 6.40499C5.4082 6.53593 5.43399 6.66557 5.4841 6.78654C5.5342 6.9075 5.60764 7.01741 5.70022 7.10999L10.5902 12L5.70022 16.89C5.60764 16.9826 5.5342 17.0925 5.4841 17.2135C5.43399 17.3344 5.4082 17.4641 5.4082 17.595C5.4082 17.7259 5.43399 17.8556 5.4841 17.9765C5.5342 18.0975 5.60764 18.2074 5.70022 18.3C5.79281 18.3926 5.90272 18.466 6.02368 18.5161C6.14464 18.5662 6.27429 18.592 6.40522 18.592C6.53615 18.592 6.6658 18.5662 6.78677 18.5161C6.90773 18.466 7.01764 18.3926 7.11022 18.3L12.0002 13.41L16.8902 18.3C16.9828 18.3926 17.0927 18.466 17.2137 18.5161C17.3346 18.5662 17.4643 18.592 17.5952 18.592C17.7262 18.592 17.8558 18.5662 17.9768 18.5161C18.0977 18.466 18.2076 18.3926 18.3002 18.3C18.3928 18.2074 18.4662 18.0975 18.5163 17.9765C18.5665 17.8556 18.5922 17.7259 18.5922 17.595C18.5922 17.4641 18.5665 17.3344 18.5163 17.2135C18.4662 17.0925 18.3928 16.9826 18.3002 16.89L13.4102 12L18.3002 7.10999C18.6802 6.72999 18.6802 6.08999 18.3002 5.70999Z" fill="black"/>
</svg>
