<svg width="24" height="24" viewBox="0 0 24 24" fill="none" xmlns="http://www.w3.org/2000/svg">
<path d="M4.33101 16.9283C4.94768 16.9283 5.4476 16.4284 5.4476 15.8117C5.4476 15.1951 4.94768 14.6952 4.33101 14.6952C3.71433 14.6952 3.21442 15.1951 3.21442 15.8117C3.21442 16.4284 3.71433 16.9283 4.33101 16.9283Z" fill="url(#paint0_radial_201_549)"/>
<path d="M19.632 16.9368C20.2487 16.9368 20.7486 16.4369 20.7486 15.8202C20.7486 15.2035 20.2487 14.7036 19.632 14.7036C19.0154 14.7036 18.5154 15.2035 18.5154 15.8202C18.5154 16.4369 19.0154 16.9368 19.632 16.9368Z" fill="url(#paint1_radial_201_549)"/>
<path d="M19.632 16.9368C20.2487 16.9368 20.7486 16.4369 20.7486 15.8202C20.7486 15.2035 20.2487 14.7036 19.632 14.7036C19.0154 14.7036 18.5154 15.2035 18.5154 15.8202C18.5154 16.4369 19.0154 16.9368 19.632 16.9368Z" fill="url(#paint2_radial_201_549)"/>
<path d="M6.9437 8.49167C6.51175 9.13959 6.19715 10.0215 6.08844 10.3591L7.77592 11.5736L9.06457 9.9423C8.83476 9.59332 8.59469 9.25121 8.34466 8.91642C8.14114 8.66185 7.92489 8.41772 7.69673 8.18498L6.9437 8.49167Z" fill="url(#paint3_radial_201_549)"/>
<path d="M6.9437 8.49167C6.51175 9.13959 6.19715 10.0215 6.08844 10.3591L7.77592 11.5736L9.06457 9.9423C8.83476 9.59332 8.59469 9.25121 8.34466 8.91642C8.14114 8.66185 7.92489 8.41772 7.69673 8.18498L6.9437 8.49167Z" fill="url(#paint4_radial_201_549)"/>
<path d="M17.011 8.49167C17.4429 9.13959 17.7575 10.0215 17.8662 10.3591L16.1787 11.5736L14.8901 9.9423C15.0427 9.70833 15.4034 9.18639 15.61 8.91642C15.8173 8.64645 16.1298 8.31601 16.2579 8.18498L17.011 8.49167Z" fill="url(#paint5_radial_201_549)"/>
<path d="M17.011 8.49167C17.4429 9.13959 17.7575 10.0215 17.8662 10.3591L16.1787 11.5736L14.8901 9.9423C15.0427 9.70833 15.4034 9.18639 15.61 8.91642C15.8173 8.64645 16.1298 8.31601 16.2579 8.18498L17.011 8.49167Z" fill="url(#paint6_radial_201_549)"/>
<path d="M17.011 8.49167C17.4429 9.13959 17.7575 10.0215 17.8662 10.3591L16.1787 11.5736L14.8901 9.9423C15.0427 9.70833 15.4034 9.18639 15.61 8.91642C15.8173 8.64645 16.1298 8.31601 16.2579 8.18498L17.011 8.49167Z" fill="url(#paint7_radial_201_549)"/>
<g filter="url(#filter0_dd_201_549)">
<path d="M2.70842 8.54215L4.94448 19.4554C4.99791 19.7154 5.13951 19.949 5.34533 20.1166C5.55116 20.2843 5.80857 20.3757 6.07403 20.3754H17.8807C18.1462 20.3755 18.4036 20.2838 18.6093 20.1159C18.815 19.9479 18.9564 19.7141 19.0095 19.4539L21.2456 8.54143L20.5314 8.19299C19.463 8.96906 17.2255 10.5608 16.6482 10.9092C16.1874 11.1871 15.7641 10.7343 15.6763 10.6054C14.8721 9.42477 13.6447 7.70561 13.1854 7.1016C12.716 6.48247 12.1847 6.17722 11.9766 6.15131C11.7686 6.17722 11.2373 6.48247 10.7672 7.1016C10.3086 7.70561 9.08184 9.42477 8.27698 10.6054C8.18915 10.7343 7.76584 11.1878 7.30509 10.9092C6.72772 10.5608 4.49022 8.96906 3.42186 8.19299L2.7077 8.54143L2.70842 8.54215Z" fill="url(#paint8_linear_201_549)"/>
<path d="M2.70842 8.54215L4.94448 19.4554C4.99791 19.7154 5.13951 19.949 5.34533 20.1166C5.55116 20.2843 5.80857 20.3757 6.07403 20.3754H17.8807C18.1462 20.3755 18.4036 20.2838 18.6093 20.1159C18.815 19.9479 18.9564 19.7141 19.0095 19.4539L21.2456 8.54143L20.5314 8.19299C19.463 8.96906 17.2255 10.5608 16.6482 10.9092C16.1874 11.1871 15.7641 10.7343 15.6763 10.6054C14.8721 9.42477 13.6447 7.70561 13.1854 7.1016C12.716 6.48247 12.1847 6.17722 11.9766 6.15131C11.7686 6.17722 11.2373 6.48247 10.7672 7.1016C10.3086 7.70561 9.08184 9.42477 8.27698 10.6054C8.18915 10.7343 7.76584 11.1878 7.30509 10.9092C6.72772 10.5608 4.49022 8.96906 3.42186 8.19299L2.7077 8.54143L2.70842 8.54215Z" fill="url(#paint9_radial_201_549)"/>
</g>
<path d="M2.70842 8.54215L4.94448 19.4554C4.99791 19.7154 5.13951 19.949 5.34533 20.1166C5.55116 20.2843 5.80857 20.3757 6.07403 20.3754H17.8807C18.1462 20.3755 18.4036 20.2838 18.6093 20.1159C18.815 19.9479 18.9564 19.7141 19.0095 19.4539L21.2456 8.54143L20.5314 8.19299C19.463 8.96906 17.2255 10.5608 16.6482 10.9092C16.1874 11.1871 15.7641 10.7343 15.6763 10.6054C14.8721 9.42477 13.6447 7.70561 13.1854 7.1016C12.716 6.48247 12.1847 6.17722 11.9766 6.15131C11.7686 6.17722 11.2373 6.48247 10.7672 7.1016C10.3086 7.70561 9.08184 9.42477 8.27698 10.6054C8.18915 10.7343 7.76584 11.1878 7.30509 10.9092C6.72772 10.5608 4.49022 8.96906 3.42186 8.19299L2.7077 8.54143L2.70842 8.54215Z" fill="url(#paint10_linear_201_549)"/>
<path d="M2.70842 8.54215L4.94448 19.4554C4.99791 19.7154 5.13951 19.949 5.34533 20.1166C5.55116 20.2843 5.80857 20.3757 6.07403 20.3754H17.8807C18.1462 20.3755 18.4036 20.2838 18.6093 20.1159C18.815 19.9479 18.9564 19.7141 19.0095 19.4539L21.2456 8.54143L20.5314 8.19299C19.463 8.96906 17.2255 10.5608 16.6482 10.9092C16.1874 11.1871 15.7641 10.7343 15.6763 10.6054C14.8721 9.42477 13.6447 7.70561 13.1854 7.1016C12.716 6.48247 12.1847 6.17722 11.9766 6.15131C11.7686 6.17722 11.2373 6.48247 10.7672 7.1016C10.3086 7.70561 9.08184 9.42477 8.27698 10.6054C8.18915 10.7343 7.76584 11.1878 7.30509 10.9092C6.72772 10.5608 4.49022 8.96906 3.42186 8.19299L2.7077 8.54143L2.70842 8.54215Z" fill="url(#paint11_linear_201_549)"/>
<path d="M2.70842 8.54215L4.94448 19.4554C4.99791 19.7154 5.13951 19.949 5.34533 20.1166C5.55116 20.2843 5.80857 20.3757 6.07403 20.3754H17.8807C18.1462 20.3755 18.4036 20.2838 18.6093 20.1159C18.815 19.9479 18.9564 19.7141 19.0095 19.4539L21.2456 8.54143L20.5314 8.19299C19.463 8.96906 17.2255 10.5608 16.6482 10.9092C16.1874 11.1871 15.7641 10.7343 15.6763 10.6054C14.8721 9.42477 13.6447 7.70561 13.1854 7.1016C12.716 6.48247 12.1847 6.17722 11.9766 6.15131C11.7686 6.17722 11.2373 6.48247 10.7672 7.1016C10.3086 7.70561 9.08184 9.42477 8.27698 10.6054C8.18915 10.7343 7.76584 11.1878 7.30509 10.9092C6.72772 10.5608 4.49022 8.96906 3.42186 8.19299L2.7077 8.54143L2.70842 8.54215Z" fill="url(#paint12_linear_201_549)"/>
<path d="M2.70842 8.54215L4.94448 19.4554C4.99791 19.7154 5.13951 19.949 5.34533 20.1166C5.55116 20.2843 5.80857 20.3757 6.07403 20.3754H17.8807C18.1462 20.3755 18.4036 20.2838 18.6093 20.1159C18.815 19.9479 18.9564 19.7141 19.0095 19.4539L21.2456 8.54143L20.5314 8.19299C19.463 8.96906 17.2255 10.5608 16.6482 10.9092C16.1874 11.1871 15.7641 10.7343 15.6763 10.6054C14.8721 9.42477 13.6447 7.70561 13.1854 7.1016C12.716 6.48247 12.1847 6.17722 11.9766 6.15131C11.7686 6.17722 11.2373 6.48247 10.7672 7.1016C10.3086 7.70561 9.08184 9.42477 8.27698 10.6054C8.18915 10.7343 7.76584 11.1878 7.30509 10.9092C6.72772 10.5608 4.49022 8.96906 3.42186 8.19299L2.7077 8.54143L2.70842 8.54215Z" fill="url(#paint13_radial_201_549)"/>
<path d="M2.70842 8.54215L4.94448 19.4554C4.99791 19.7154 5.13951 19.949 5.34533 20.1166C5.55116 20.2843 5.80857 20.3757 6.07403 20.3754H17.8807C18.1462 20.3755 18.4036 20.2838 18.6093 20.1159C18.815 19.9479 18.9564 19.7141 19.0095 19.4539L21.2456 8.54143L20.5314 8.19299C19.463 8.96906 17.2255 10.5608 16.6482 10.9092C16.1874 11.1871 15.7641 10.7343 15.6763 10.6054C14.8721 9.42477 13.6447 7.70561 13.1854 7.1016C12.716 6.48247 12.1847 6.17722 11.9766 6.15131C11.7686 6.17722 11.2373 6.48247 10.7672 7.1016C10.3086 7.70561 9.08184 9.42477 8.27698 10.6054C8.18915 10.7343 7.76584 11.1878 7.30509 10.9092C6.72772 10.5608 4.49022 8.96906 3.42186 8.19299L2.7077 8.54143L2.70842 8.54215Z" fill="url(#paint14_radial_201_549)"/>
<path d="M2.70842 8.54215L4.94448 19.4554C4.99791 19.7154 5.13951 19.949 5.34533 20.1166C5.55116 20.2843 5.80857 20.3757 6.07403 20.3754H17.8807C18.1462 20.3755 18.4036 20.2838 18.6093 20.1159C18.815 19.9479 18.9564 19.7141 19.0095 19.4539L21.2456 8.54143L20.5314 8.19299C19.463 8.96906 17.2255 10.5608 16.6482 10.9092C16.1874 11.1871 15.7641 10.7343 15.6763 10.6054C14.8721 9.42477 13.6447 7.70561 13.1854 7.1016C12.716 6.48247 12.1847 6.17722 11.9766 6.15131C11.7686 6.17722 11.2373 6.48247 10.7672 7.1016C10.3086 7.70561 9.08184 9.42477 8.27698 10.6054C8.18915 10.7343 7.76584 11.1878 7.30509 10.9092C6.72772 10.5608 4.49022 8.96906 3.42186 8.19299L2.7077 8.54143L2.70842 8.54215Z" fill="url(#paint15_radial_201_549)"/>
<g filter="url(#filter1_dd_201_549)">
<path d="M17.5785 16.1657C17.387 16.7517 16.7736 17.0454 16.1876 16.8546C15.7456 16.6747 15.5548 16.17 15.7456 15.584C15.9364 14.9972 16.5375 14.661 16.9018 14.7791C17.4878 14.9699 17.7686 15.5789 17.5785 16.1657Z" fill="url(#paint16_radial_201_549)"/>
<path d="M17.5785 16.1657C17.387 16.7517 16.7736 17.0454 16.1876 16.8546C15.7456 16.6747 15.5548 16.17 15.7456 15.584C15.9364 14.9972 16.5375 14.661 16.9018 14.7791C17.4878 14.9699 17.7686 15.5789 17.5785 16.1657Z" fill="url(#paint17_radial_201_549)"/>
</g>
<g filter="url(#filter2_dd_201_549)">
<path d="M6.43177 16.1657C6.62255 16.7517 7.23592 17.0454 7.82265 16.8546C8.26396 16.6747 8.45474 16.17 8.26396 15.584C8.07318 14.9972 7.47205 14.661 7.1085 14.7791C6.52176 14.9699 6.241 15.5789 6.43177 16.1657Z" fill="url(#paint18_radial_201_549)"/>
<path d="M6.43177 16.1657C6.62255 16.7517 7.23592 17.0454 7.82265 16.8546C8.26396 16.6747 8.45474 16.17 8.26396 15.584C8.07318 14.9972 7.47205 14.661 7.1085 14.7791C6.52176 14.9699 6.241 15.5789 6.43177 16.1657Z" fill="url(#paint19_radial_201_549)"/>
</g>
<path d="M4.00209 8.37764C4.00209 8.64313 3.89662 8.89775 3.70889 9.08548C3.52116 9.27321 3.26654 9.37868 3.00104 9.37868C2.73555 9.37868 2.48093 9.27321 2.2932 9.08548C2.10547 8.89775 2 8.64313 2 8.37764C2 8.11224 2.10543 7.85771 2.29309 7.67005C2.48076 7.48238 2.73529 7.37695 3.00068 7.37695C3.26608 7.37695 3.52061 7.48238 3.70827 7.67005C3.89594 7.85771 4.00209 8.11224 4.00209 8.37764Z" fill="url(#paint20_radial_201_549)"/>
<path d="M4.00209 8.37764C4.00209 8.64313 3.89662 8.89775 3.70889 9.08548C3.52116 9.27321 3.26654 9.37868 3.00104 9.37868C2.73555 9.37868 2.48093 9.27321 2.2932 9.08548C2.10547 8.89775 2 8.64313 2 8.37764C2 8.11224 2.10543 7.85771 2.29309 7.67005C2.48076 7.48238 2.73529 7.37695 3.00068 7.37695C3.26608 7.37695 3.52061 7.48238 3.70827 7.67005C3.89594 7.85771 4.00209 8.11224 4.00209 8.37764Z" fill="url(#paint21_radial_201_549)"/>
<path d="M4.00209 8.37764C4.00209 8.64313 3.89662 8.89775 3.70889 9.08548C3.52116 9.27321 3.26654 9.37868 3.00104 9.37868C2.73555 9.37868 2.48093 9.27321 2.2932 9.08548C2.10547 8.89775 2 8.64313 2 8.37764C2 8.11224 2.10543 7.85771 2.29309 7.67005C2.48076 7.48238 2.73529 7.37695 3.00068 7.37695C3.26608 7.37695 3.52061 7.48238 3.70827 7.67005C3.89594 7.85771 4.00209 8.11224 4.00209 8.37764Z" fill="url(#paint22_radial_201_549)"/>
<path d="M4.00209 8.37764C4.00209 8.64313 3.89662 8.89775 3.70889 9.08548C3.52116 9.27321 3.26654 9.37868 3.00104 9.37868C2.73555 9.37868 2.48093 9.27321 2.2932 9.08548C2.10547 8.89775 2 8.64313 2 8.37764C2 8.11224 2.10543 7.85771 2.29309 7.67005C2.48076 7.48238 2.73529 7.37695 3.00068 7.37695C3.26608 7.37695 3.52061 7.48238 3.70827 7.67005C3.89594 7.85771 4.00209 8.11224 4.00209 8.37764Z" fill="url(#paint23_radial_201_549)"/>
<path d="M7.85926 8.56147C8.0504 8.44951 8.19898 8.27729 8.28172 8.07181C8.36446 7.86632 8.37669 7.6392 8.31648 7.42602C8.25626 7.21285 8.12702 7.02568 7.949 6.89385C7.77099 6.76202 7.55426 6.69298 7.33279 6.69756C7.11133 6.70213 6.89764 6.78006 6.72522 6.91913C6.5528 7.05821 6.4314 7.25056 6.38005 7.46604C6.32869 7.68152 6.35029 7.90795 6.44145 8.10983C6.53261 8.31172 6.68818 8.47766 6.88378 8.58163C6.98016 8.54452 7.08594 8.53947 7.18542 8.56723C7.33948 8.61187 7.59289 8.66802 7.85998 8.56147H7.85926Z" fill="url(#paint24_radial_201_549)"/>
<path d="M7.85926 8.56147C8.0504 8.44951 8.19898 8.27729 8.28172 8.07181C8.36446 7.86632 8.37669 7.6392 8.31648 7.42602C8.25626 7.21285 8.12702 7.02568 7.949 6.89385C7.77099 6.76202 7.55426 6.69298 7.33279 6.69756C7.11133 6.70213 6.89764 6.78006 6.72522 6.91913C6.5528 7.05821 6.4314 7.25056 6.38005 7.46604C6.32869 7.68152 6.35029 7.90795 6.44145 8.10983C6.53261 8.31172 6.68818 8.47766 6.88378 8.58163C6.98016 8.54452 7.08594 8.53947 7.18542 8.56723C7.33948 8.61187 7.59289 8.66802 7.85998 8.56147H7.85926Z" fill="url(#paint25_radial_201_549)"/>
<path d="M7.85926 8.56147C8.0504 8.44951 8.19898 8.27729 8.28172 8.07181C8.36446 7.86632 8.37669 7.6392 8.31648 7.42602C8.25626 7.21285 8.12702 7.02568 7.949 6.89385C7.77099 6.76202 7.55426 6.69298 7.33279 6.69756C7.11133 6.70213 6.89764 6.78006 6.72522 6.91913C6.5528 7.05821 6.4314 7.25056 6.38005 7.46604C6.32869 7.68152 6.35029 7.90795 6.44145 8.10983C6.53261 8.31172 6.68818 8.47766 6.88378 8.58163C6.98016 8.54452 7.08594 8.53947 7.18542 8.56723C7.33948 8.61187 7.59289 8.66802 7.85998 8.56147H7.85926Z" fill="url(#paint26_radial_201_549)"/>
<path d="M7.85926 8.56147C8.0504 8.44951 8.19898 8.27729 8.28172 8.07181C8.36446 7.86632 8.37669 7.6392 8.31648 7.42602C8.25626 7.21285 8.12702 7.02568 7.949 6.89385C7.77099 6.76202 7.55426 6.69298 7.33279 6.69756C7.11133 6.70213 6.89764 6.78006 6.72522 6.91913C6.5528 7.05821 6.4314 7.25056 6.38005 7.46604C6.32869 7.68152 6.35029 7.90795 6.44145 8.10983C6.53261 8.31172 6.68818 8.47766 6.88378 8.58163C6.98016 8.54452 7.08594 8.53947 7.18542 8.56723C7.33948 8.61187 7.59289 8.66802 7.85998 8.56147H7.85926Z" fill="url(#paint27_radial_201_549)"/>
<g filter="url(#filter3_d_201_549)">
<path d="M16.095 8.56147C15.9039 8.44951 15.7553 8.27729 15.6726 8.07181C15.5898 7.86632 15.5776 7.6392 15.6378 7.42602C15.698 7.21285 15.8273 7.02568 16.0053 6.89385C16.1833 6.76202 16.4 6.69298 16.6215 6.69756C16.843 6.70213 17.0567 6.78006 17.2291 6.91913C17.4015 7.05821 17.5229 7.25056 17.5743 7.46604C17.6256 7.68152 17.604 7.90795 17.5129 8.10983C17.4217 8.31172 17.2661 8.47766 17.0705 8.58163C16.9742 8.54452 16.8684 8.53947 16.7689 8.56723C16.6148 8.61187 16.3621 8.66802 16.095 8.56147Z" fill="url(#paint28_radial_201_549)"/>
<path d="M16.095 8.56147C15.9039 8.44951 15.7553 8.27729 15.6726 8.07181C15.5898 7.86632 15.5776 7.6392 15.6378 7.42602C15.698 7.21285 15.8273 7.02568 16.0053 6.89385C16.1833 6.76202 16.4 6.69298 16.6215 6.69756C16.843 6.70213 17.0567 6.78006 17.2291 6.91913C17.4015 7.05821 17.5229 7.25056 17.5743 7.46604C17.6256 7.68152 17.604 7.90795 17.5129 8.10983C17.4217 8.31172 17.2661 8.47766 17.0705 8.58163C16.9742 8.54452 16.8684 8.53947 16.7689 8.56723C16.6148 8.61187 16.3621 8.66802 16.095 8.56147Z" fill="url(#paint29_radial_201_549)"/>
</g>
<g filter="url(#filter4_dd_201_549)">
<path d="M12.0047 17.6427C12.986 17.6427 13.7815 16.8472 13.7815 15.8659C13.7815 14.8846 12.986 14.0891 12.0047 14.0891C11.0234 14.0891 10.228 14.8846 10.228 15.8659C10.228 16.8472 11.0234 17.6427 12.0047 17.6427Z" fill="url(#paint30_radial_201_549)"/>
</g>
<g filter="url(#filter5_f_201_549)">
<path d="M12.1285 6.52763C12.2531 6.51323 12.5698 6.57731 12.8485 6.95526C13.1278 7.33322 14.8253 9.75214 15.6389 10.9148C15.7965 11.1581 16.2623 11.5426 16.8649 11.1286C17.4682 10.7147 19.4069 9.31083 20.1383 8.82345" stroke="url(#paint31_linear_201_549)" stroke-width="0.15"/>
<path d="M12.1285 6.52763C12.2531 6.51323 12.5698 6.57731 12.8485 6.95526C13.1278 7.33322 14.8253 9.75214 15.6389 10.9148C15.7965 11.1581 16.2623 11.5426 16.8649 11.1286C17.4682 10.7147 19.4069 9.31083 20.1383 8.82345" stroke="url(#paint32_radial_201_549)" stroke-width="0.15"/>
</g>
<path d="M11.9745 6.59314C12.6906 6.59314 13.2711 6.01265 13.2711 5.29657C13.2711 4.58049 12.6906 4 11.9745 4C11.2584 4 10.6779 4.58049 10.6779 5.29657C10.6779 6.01265 11.2584 6.59314 11.9745 6.59314Z" fill="url(#paint33_radial_201_549)"/>
<path d="M11.9745 6.59314C12.6906 6.59314 13.2711 6.01265 13.2711 5.29657C13.2711 4.58049 12.6906 4 11.9745 4C11.2584 4 10.6779 4.58049 10.6779 5.29657C10.6779 6.01265 11.2584 6.59314 11.9745 6.59314Z" fill="url(#paint34_radial_201_549)"/>
<path d="M11.9745 6.59314C12.6906 6.59314 13.2711 6.01265 13.2711 5.29657C13.2711 4.58049 12.6906 4 11.9745 4C11.2584 4 10.6779 4.58049 10.6779 5.29657C10.6779 6.01265 11.2584 6.59314 11.9745 6.59314Z" fill="url(#paint35_radial_201_549)"/>
<path d="M11.9745 6.59314C12.6906 6.59314 13.2711 6.01265 13.2711 5.29657C13.2711 4.58049 12.6906 4 11.9745 4C11.2584 4 10.6779 4.58049 10.6779 5.29657C10.6779 6.01265 11.2584 6.59314 11.9745 6.59314Z" fill="url(#paint36_radial_201_549)"/>
<path d="M22 8.37764C22 8.64313 21.8945 8.89775 21.7068 9.08548C21.5191 9.27321 21.2645 9.37868 20.999 9.37868C20.7335 9.37868 20.4789 9.27321 20.2911 9.08548C20.1034 8.89775 19.9979 8.64313 19.9979 8.37764C19.9979 8.11224 20.1034 7.85771 20.291 7.67005C20.4787 7.48238 20.7332 7.37695 20.9986 7.37695C21.264 7.37695 21.5185 7.48238 21.7062 7.67005C21.8939 7.85771 21.9993 8.11224 21.9993 8.37764H22Z" fill="url(#paint37_radial_201_549)"/>
<path d="M22 8.37764C22 8.64313 21.8945 8.89775 21.7068 9.08548C21.5191 9.27321 21.2645 9.37868 20.999 9.37868C20.7335 9.37868 20.4789 9.27321 20.2911 9.08548C20.1034 8.89775 19.9979 8.64313 19.9979 8.37764C19.9979 8.11224 20.1034 7.85771 20.291 7.67005C20.4787 7.48238 20.7332 7.37695 20.9986 7.37695C21.264 7.37695 21.5185 7.48238 21.7062 7.67005C21.8939 7.85771 21.9993 8.11224 21.9993 8.37764H22Z" fill="url(#paint38_radial_201_549)"/>
<path d="M22 8.37764C22 8.64313 21.8945 8.89775 21.7068 9.08548C21.5191 9.27321 21.2645 9.37868 20.999 9.37868C20.7335 9.37868 20.4789 9.27321 20.2911 9.08548C20.1034 8.89775 19.9979 8.64313 19.9979 8.37764C19.9979 8.11224 20.1034 7.85771 20.291 7.67005C20.4787 7.48238 20.7332 7.37695 20.9986 7.37695C21.264 7.37695 21.5185 7.48238 21.7062 7.67005C21.8939 7.85771 21.9993 8.11224 21.9993 8.37764H22Z" fill="url(#paint39_radial_201_549)"/>
<path d="M22 8.37764C22 8.64313 21.8945 8.89775 21.7068 9.08548C21.5191 9.27321 21.2645 9.37868 20.999 9.37868C20.7335 9.37868 20.4789 9.27321 20.2911 9.08548C20.1034 8.89775 19.9979 8.64313 19.9979 8.37764C19.9979 8.11224 20.1034 7.85771 20.291 7.67005C20.4787 7.48238 20.7332 7.37695 20.9986 7.37695C21.264 7.37695 21.5185 7.48238 21.7062 7.67005C21.8939 7.85771 21.9993 8.11224 21.9993 8.37764H22Z" fill="url(#paint40_radial_201_549)"/>
<defs>
<filter id="filter0_dd_201_549" x="1.8077" y="5.55131" width="20.3378" height="15.2241" filterUnits="userSpaceOnUse" color-interpolation-filters="sRGB">
<feFlood flood-opacity="0" result="BackgroundImageFix"/>
<feColorMatrix in="SourceAlpha" type="matrix" values="0 0 0 0 0 0 0 0 0 0 0 0 0 0 0 0 0 0 127 0" result="hardAlpha"/>
<feOffset dx="0.4" dy="-0.1"/>
<feGaussianBlur stdDeviation="0.25"/>
<feComposite in2="hardAlpha" operator="out"/>
<feColorMatrix type="matrix" values="0 0 0 0 0.803922 0 0 0 0 0.580392 0 0 0 0 0.262745 0 0 0 1 0"/>
<feBlend mode="normal" in2="BackgroundImageFix" result="effect1_dropShadow_201_549"/>
<feColorMatrix in="SourceAlpha" type="matrix" values="0 0 0 0 0 0 0 0 0 0 0 0 0 0 0 0 0 0 127 0" result="hardAlpha"/>
<feOffset dx="-0.4" dy="-0.1"/>
<feGaussianBlur stdDeviation="0.25"/>
<feComposite in2="hardAlpha" operator="out"/>
<feColorMatrix type="matrix" values="0 0 0 0 0.894118 0 0 0 0 0.686275 0 0 0 0 0.301961 0 0 0 1 0"/>
<feBlend mode="normal" in2="effect1_dropShadow_201_549" result="effect2_dropShadow_201_549"/>
<feBlend mode="normal" in="SourceGraphic" in2="effect2_dropShadow_201_549" result="shape"/>
</filter>
<filter id="filter1_dd_201_549" x="14.6719" y="14.1056" width="3.61564" height="3.80691" filterUnits="userSpaceOnUse" color-interpolation-filters="sRGB">
<feFlood flood-opacity="0" result="BackgroundImageFix"/>
<feColorMatrix in="SourceAlpha" type="matrix" values="0 0 0 0 0 0 0 0 0 0 0 0 0 0 0 0 0 0 127 0" result="hardAlpha"/>
<feOffset dx="-0.25" dy="0.25"/>
<feGaussianBlur stdDeviation="0.375"/>
<feComposite in2="hardAlpha" operator="out"/>
<feColorMatrix type="matrix" values="0 0 0 0 1 0 0 0 0 0.54902 0 0 0 0 0.305882 0 0 0 1 0"/>
<feBlend mode="normal" in2="BackgroundImageFix" result="effect1_dropShadow_201_549"/>
<feColorMatrix in="SourceAlpha" type="matrix" values="0 0 0 0 0 0 0 0 0 0 0 0 0 0 0 0 0 0 127 0" result="hardAlpha"/>
<feOffset dx="0.15" dy="-0.15"/>
<feGaussianBlur stdDeviation="0.25"/>
<feComposite in2="hardAlpha" operator="out"/>
<feColorMatrix type="matrix" values="0 0 0 0 0.984314 0 0 0 0 0.219608 0 0 0 0 0.254902 0 0 0 1 0"/>
<feBlend mode="normal" in2="effect1_dropShadow_201_549" result="effect2_dropShadow_201_549"/>
<feBlend mode="normal" in="SourceGraphic" in2="effect2_dropShadow_201_549" result="shape"/>
</filter>
<filter id="filter2_dd_201_549" x="5.37244" y="14.2556" width="3.86527" height="3.65691" filterUnits="userSpaceOnUse" color-interpolation-filters="sRGB">
<feFlood flood-opacity="0" result="BackgroundImageFix"/>
<feColorMatrix in="SourceAlpha" type="matrix" values="0 0 0 0 0 0 0 0 0 0 0 0 0 0 0 0 0 0 127 0" result="hardAlpha"/>
<feOffset dx="-0.25" dy="0.25"/>
<feGaussianBlur stdDeviation="0.375"/>
<feComposite in2="hardAlpha" operator="out"/>
<feColorMatrix type="matrix" values="0 0 0 0 0.905882 0 0 0 0 0.439216 0 0 0 0 0.278431 0 0 0 1 0"/>
<feBlend mode="normal" in2="BackgroundImageFix" result="effect1_dropShadow_201_549"/>
<feColorMatrix in="SourceAlpha" type="matrix" values="0 0 0 0 0 0 0 0 0 0 0 0 0 0 0 0 0 0 127 0" result="hardAlpha"/>
<feOffset dx="0.3" dy="0.3"/>
<feGaussianBlur stdDeviation="0.3"/>
<feComposite in2="hardAlpha" operator="out"/>
<feColorMatrix type="matrix" values="0 0 0 0 0.796078 0 0 0 0 0.141176 0 0 0 0 0.223529 0 0 0 1 0"/>
<feBlend mode="normal" in2="effect1_dropShadow_201_549" result="effect2_dropShadow_201_549"/>
<feBlend mode="normal" in="SourceGraphic" in2="effect2_dropShadow_201_549" result="shape"/>
</filter>
<filter id="filter3_d_201_549" x="15.3502" y="6.44734" width="2.50134" height="2.42519" filterUnits="userSpaceOnUse" color-interpolation-filters="sRGB">
<feFlood flood-opacity="0" result="BackgroundImageFix"/>
<feColorMatrix in="SourceAlpha" type="matrix" values="0 0 0 0 0 0 0 0 0 0 0 0 0 0 0 0 0 0 127 0" result="hardAlpha"/>
<feOffset/>
<feGaussianBlur stdDeviation="0.125"/>
<feComposite in2="hardAlpha" operator="out"/>
<feColorMatrix type="matrix" values="0 0 0 0 0.756863 0 0 0 0 0.619608 0 0 0 0 0.321569 0 0 0 1 0"/>
<feBlend mode="normal" in2="BackgroundImageFix" result="effect1_dropShadow_201_549"/>
<feBlend mode="normal" in="SourceGraphic" in2="effect1_dropShadow_201_549" result="shape"/>
</filter>
<filter id="filter4_dd_201_549" x="8.47797" y="11.8391" width="7.55353" height="7.55351" filterUnits="userSpaceOnUse" color-interpolation-filters="sRGB">
<feFlood flood-opacity="0" result="BackgroundImageFix"/>
<feColorMatrix in="SourceAlpha" type="matrix" values="0 0 0 0 0 0 0 0 0 0 0 0 0 0 0 0 0 0 127 0" result="hardAlpha"/>
<feOffset dx="-0.5" dy="0.5"/>
<feGaussianBlur stdDeviation="0.625"/>
<feComposite in2="hardAlpha" operator="out"/>
<feColorMatrix type="matrix" values="0 0 0 0 0.937255 0 0 0 0 0.443137 0 0 0 0 0.376471 0 0 0 1 0"/>
<feBlend mode="normal" in2="BackgroundImageFix" result="effect1_dropShadow_201_549"/>
<feColorMatrix in="SourceAlpha" type="matrix" values="0 0 0 0 0 0 0 0 0 0 0 0 0 0 0 0 0 0 127 0" result="hardAlpha"/>
<feOffset dx="0.75" dy="-0.75"/>
<feGaussianBlur stdDeviation="0.75"/>
<feComposite in2="hardAlpha" operator="out"/>
<feColorMatrix type="matrix" values="0 0 0 0 0.313726 0 0 0 0 0.384314 0 0 0 0 1 0 0 0 1 0"/>
<feBlend mode="normal" in2="effect1_dropShadow_201_549" result="effect2_dropShadow_201_549"/>
<feBlend mode="normal" in="SourceGraphic" in2="effect2_dropShadow_201_549" result="shape"/>
</filter>
<filter id="filter5_f_201_549" x="11.9699" y="6.30081" width="8.36" height="5.23573" filterUnits="userSpaceOnUse" color-interpolation-filters="sRGB">
<feFlood flood-opacity="0" result="BackgroundImageFix"/>
<feBlend mode="normal" in="SourceGraphic" in2="BackgroundImageFix" result="shape"/>
<feGaussianBlur stdDeviation="0.075" result="effect1_foregroundBlur_201_549"/>
</filter>
<radialGradient id="paint0_radial_201_549" cx="0" cy="0" r="1" gradientUnits="userSpaceOnUse" gradientTransform="translate(4.33073 16.5289) rotate(-103.54) scale(1.26116 1.55264)">
<stop stop-color="#395DE0"/>
<stop offset="1" stop-color="#2C68A3"/>
</radialGradient>
<radialGradient id="paint1_radial_201_549" cx="0" cy="0" r="1" gradientUnits="userSpaceOnUse" gradientTransform="translate(20.3236 14.8981) rotate(108.743) scale(2.153)">
<stop offset="0.249" stop-color="#3DB3F3"/>
<stop offset="1" stop-color="#5B73F4"/>
</radialGradient>
<radialGradient id="paint2_radial_201_549" cx="0" cy="0" r="1" gradientUnits="userSpaceOnUse" gradientTransform="translate(20.6824 15.3818) rotate(161.162) scale(1.01026 0.640521)">
<stop offset="0.258" stop-color="#5FBEFF"/>
<stop offset="1" stop-color="#5FBEFF" stop-opacity="0"/>
</radialGradient>
<radialGradient id="paint3_radial_201_549" cx="0" cy="0" r="1" gradientUnits="userSpaceOnUse" gradientTransform="translate(6.69029 9.55498) rotate(15.9454) scale(2.29297 5.72315)">
<stop stop-color="#FBC96E"/>
<stop offset="1" stop-color="#FAC567"/>
</radialGradient>
<radialGradient id="paint4_radial_201_549" cx="0" cy="0" r="1" gradientUnits="userSpaceOnUse" gradientTransform="translate(8.04013 10.0496) rotate(-156.753) scale(1.73847 5.22852)">
<stop offset="0.765" stop-color="#D89F3A" stop-opacity="0"/>
<stop offset="0.911" stop-color="#DAA139"/>
</radialGradient>
<radialGradient id="paint5_radial_201_549" cx="0" cy="0" r="1" gradientUnits="userSpaceOnUse" gradientTransform="translate(17.6467 10.949) rotate(-125.455) scale(1.82284 1.8695)">
<stop offset="0.254" stop-color="#BF812A"/>
<stop offset="1" stop-color="#CE9333"/>
</radialGradient>
<radialGradient id="paint6_radial_201_549" cx="0" cy="0" r="1" gradientUnits="userSpaceOnUse" gradientTransform="translate(16.2406 10.0604) rotate(-23.0909) scale(1.57747 4.10955)">
<stop offset="0.734" stop-color="#E9BB61" stop-opacity="0"/>
<stop offset="0.929" stop-color="#E9BB61"/>
</radialGradient>
<radialGradient id="paint7_radial_201_549" cx="0" cy="0" r="1" gradientUnits="userSpaceOnUse" gradientTransform="translate(17.1749 10.5102) rotate(-142.922) scale(2.48148 4.18637)">
<stop offset="0.773" stop-color="#C18739" stop-opacity="0"/>
<stop offset="0.948" stop-color="#C18739"/>
</radialGradient>
<linearGradient id="paint8_linear_201_549" x1="17.1651" y1="14.6089" x2="4.44702" y2="17.5749" gradientUnits="userSpaceOnUse">
<stop stop-color="#FFBC5D"/>
<stop offset="0.304" stop-color="#FCAD6A"/>
<stop offset="1" stop-color="#CB7547"/>
</linearGradient>
<radialGradient id="paint9_radial_201_549" cx="0" cy="0" r="1" gradientUnits="userSpaceOnUse" gradientTransform="translate(9.19343 22.7288) rotate(-69.4212) scale(7.92095 15.4167)">
<stop stop-color="#F67B4E"/>
<stop offset="1" stop-color="#F67B4E" stop-opacity="0"/>
</radialGradient>
<linearGradient id="paint10_linear_201_549" x1="4.26056" y1="17.2711" x2="6.21802" y2="16.8665" gradientUnits="userSpaceOnUse">
<stop stop-color="#C2794C"/>
<stop offset="1" stop-color="#E07648" stop-opacity="0"/>
</linearGradient>
<linearGradient id="paint11_linear_201_549" x1="19.6265" y1="18.531" x2="16.2968" y2="17.7664" gradientUnits="userSpaceOnUse">
<stop offset="0.129" stop-color="#FFBB5B"/>
<stop offset="1" stop-color="#FFBB5B" stop-opacity="0"/>
</linearGradient>
<linearGradient id="paint12_linear_201_549" x1="13.0126" y1="20.5784" x2="13.0126" y2="19.7232" gradientUnits="userSpaceOnUse">
<stop offset="0.184" stop-color="#FF6F8C"/>
<stop offset="1" stop-color="#FF7A6A" stop-opacity="0"/>
</linearGradient>
<radialGradient id="paint13_radial_201_549" cx="0" cy="0" r="1" gradientUnits="userSpaceOnUse" gradientTransform="translate(20.6617 8.72213) rotate(113.385) scale(1.81379 1.50349)">
<stop offset="0.377" stop-color="#DD9049"/>
<stop offset="1" stop-color="#F8BF60" stop-opacity="0"/>
</radialGradient>
<radialGradient id="paint14_radial_201_549" cx="0" cy="0" r="1" gradientUnits="userSpaceOnUse" gradientTransform="translate(3.37219 8.82364) rotate(64.2172) scale(1.47409 0.806289)">
<stop offset="0.196" stop-color="#D7783D"/>
<stop offset="1" stop-color="#D7783D" stop-opacity="0"/>
</radialGradient>
<radialGradient id="paint15_radial_201_549" cx="0" cy="0" r="1" gradientUnits="userSpaceOnUse" gradientTransform="translate(11.9773 6.15203) rotate(76.0566) scale(0.840281 1.84012)">
<stop offset="0.382" stop-color="#D48C33"/>
<stop offset="1" stop-color="#FEB16A" stop-opacity="0"/>
</radialGradient>
<radialGradient id="paint16_radial_201_549" cx="0" cy="0" r="1" gradientUnits="userSpaceOnUse" gradientTransform="translate(16.3194 16.3939) rotate(-51.5819) scale(1.66542 1.07462)">
<stop stop-color="#FF196C"/>
<stop offset="1" stop-color="#FF1F4A"/>
</radialGradient>
<radialGradient id="paint17_radial_201_549" cx="0" cy="0" r="1" gradientUnits="userSpaceOnUse" gradientTransform="translate(17.4669 15.5156) rotate(149.744) scale(1.25018 0.791882)">
<stop offset="0.223" stop-color="#FF5873"/>
<stop offset="1" stop-color="#FF5873" stop-opacity="0"/>
</radialGradient>
<radialGradient id="paint18_radial_201_549" cx="0" cy="0" r="1" gradientUnits="userSpaceOnUse" gradientTransform="translate(7.5228 16.4383) rotate(-104.281) scale(1.27682 1.2225)">
<stop stop-color="#F6196C"/>
<stop offset="1" stop-color="#E42047"/>
</radialGradient>
<radialGradient id="paint19_radial_201_549" cx="0" cy="0" r="1" gradientUnits="userSpaceOnUse" gradientTransform="translate(8.05159 15.6625) rotate(155.726) scale(0.629326 0.551237)">
<stop stop-color="#FE536F"/>
<stop offset="1" stop-color="#FE536F" stop-opacity="0"/>
</radialGradient>
<radialGradient id="paint20_radial_201_549" cx="0" cy="0" r="1" gradientUnits="userSpaceOnUse" gradientTransform="translate(3.81042 7.69367) rotate(135.198) scale(2.14022 2.22661)">
<stop offset="0.172" stop-color="#E7C04E"/>
<stop offset="1" stop-color="#D9972A"/>
</radialGradient>
<radialGradient id="paint21_radial_201_549" cx="0" cy="0" r="1" gradientUnits="userSpaceOnUse" gradientTransform="translate(2.77594 9.50946) rotate(-71.331) scale(1.19477 1.29421)">
<stop offset="0.065" stop-color="#DF8089"/>
<stop offset="1" stop-color="#DF8089" stop-opacity="0"/>
</radialGradient>
<radialGradient id="paint22_radial_201_549" cx="0" cy="0" r="1" gradientUnits="userSpaceOnUse" gradientTransform="translate(3.8905 7.73979) rotate(141.017) scale(1.01296 0.523472)">
<stop stop-color="#FFDE71"/>
<stop offset="1" stop-color="#FFDE71" stop-opacity="0"/>
</radialGradient>
<radialGradient id="paint23_radial_201_549" cx="0" cy="0" r="1" gradientUnits="userSpaceOnUse" gradientTransform="translate(3.34984 8.44171) rotate(180) scale(1.34984 1.40292)">
<stop offset="0.488" stop-color="#E1AD3D" stop-opacity="0"/>
<stop offset="1" stop-color="#B9894B"/>
</radialGradient>
<radialGradient id="paint24_radial_201_549" cx="0" cy="0" r="1" gradientUnits="userSpaceOnUse" gradientTransform="translate(8.16357 7.00113) rotate(136.302) scale(2.10041 2.18298)">
<stop offset="0.172" stop-color="#E7C04E"/>
<stop offset="1" stop-color="#D9972A"/>
</radialGradient>
<radialGradient id="paint25_radial_201_549" cx="0" cy="0" r="1" gradientUnits="userSpaceOnUse" gradientTransform="translate(8.24226 7.04605) rotate(142.093) scale(0.997979 0.511239)">
<stop stop-color="#FFDE71"/>
<stop offset="1" stop-color="#FFDE71" stop-opacity="0"/>
</radialGradient>
<radialGradient id="paint26_radial_201_549" cx="0" cy="0" r="1" gradientUnits="userSpaceOnUse" gradientTransform="translate(7.35388 8.74433) rotate(-76.7987) scale(0.935879 1.24819)">
<stop stop-color="#E4A122"/>
<stop offset="1" stop-color="#E4A122" stop-opacity="0"/>
</radialGradient>
<radialGradient id="paint27_radial_201_549" cx="0" cy="0" r="1" gradientUnits="userSpaceOnUse" gradientTransform="translate(7.70232 7.72061) rotate(180) scale(1.34984)">
<stop offset="0.488" stop-color="#E1AD3D" stop-opacity="0"/>
<stop offset="1" stop-color="#B9894B"/>
</radialGradient>
<radialGradient id="paint28_radial_201_549" cx="0" cy="0" r="1" gradientUnits="userSpaceOnUse" gradientTransform="translate(17.3539 7.32768) rotate(136.32) scale(1.72648 1.79436)">
<stop offset="0.172" stop-color="#F0C950"/>
<stop offset="1" stop-color="#C8861F"/>
</radialGradient>
<radialGradient id="paint29_radial_201_549" cx="0" cy="0" r="1" gradientUnits="userSpaceOnUse" gradientTransform="translate(17.5003 7.13604) rotate(147.14) scale(0.964174 0.493917)">
<stop offset="0.184" stop-color="#FFDE71"/>
<stop offset="1" stop-color="#FFDE71" stop-opacity="0"/>
</radialGradient>
<radialGradient id="paint30_radial_201_549" cx="0" cy="0" r="1" gradientUnits="userSpaceOnUse" gradientTransform="translate(12.7868 15.3138) rotate(138.155) scale(2.02339)">
<stop stop-color="#5FBFFF"/>
<stop offset="1" stop-color="#3E94FF"/>
</radialGradient>
<linearGradient id="paint31_linear_201_549" x1="12.1293" y1="6.38221" x2="16.6964" y2="12.1415" gradientUnits="userSpaceOnUse">
<stop stop-color="#FFD678"/>
<stop offset="1" stop-color="#FFD678" stop-opacity="0"/>
</linearGradient>
<radialGradient id="paint32_radial_201_549" cx="0" cy="0" r="1" gradientUnits="userSpaceOnUse" gradientTransform="translate(16.6964 11.5793) rotate(-34.6679) scale(4.67748 1.25282)">
<stop offset="0.289" stop-color="#FFD175"/>
<stop offset="1" stop-color="#FFD175" stop-opacity="0"/>
</radialGradient>
<radialGradient id="paint33_radial_201_549" cx="0" cy="0" r="1" gradientUnits="userSpaceOnUse" gradientTransform="translate(13.0131 4.58233) rotate(125.606) scale(2.47306 2.09969)">
<stop offset="0.376" stop-color="#F3D154"/>
<stop offset="1" stop-color="#CC9848"/>
</radialGradient>
<radialGradient id="paint34_radial_201_549" cx="0" cy="0" r="1" gradientUnits="userSpaceOnUse" gradientTransform="translate(11.7297 6.59314) rotate(-79.3129) scale(1.31929 1.56827)">
<stop stop-color="#E78F5E"/>
<stop offset="1" stop-color="#E78F5E" stop-opacity="0"/>
</radialGradient>
<radialGradient id="paint35_radial_201_549" cx="0" cy="0" r="1" gradientUnits="userSpaceOnUse" gradientTransform="translate(12.5173 5.72996) rotate(-146.725) scale(2.58329 3.08973)">
<stop offset="0.557" stop-color="#E9C251" stop-opacity="0"/>
<stop offset="1" stop-color="#B49858"/>
</radialGradient>
<radialGradient id="paint36_radial_201_549" cx="0" cy="0" r="1" gradientUnits="userSpaceOnUse" gradientTransform="translate(13.4626 4.71704) rotate(156.06) scale(1.42767 1.09865)">
<stop stop-color="#FFED77"/>
<stop offset="1" stop-color="#FFED77" stop-opacity="0"/>
</radialGradient>
<radialGradient id="paint37_radial_201_549" cx="0" cy="0" r="1" gradientUnits="userSpaceOnUse" gradientTransform="translate(21.8087 7.69443) rotate(135.198) scale(2.14022 2.22661)">
<stop offset="0.172" stop-color="#F8CB54"/>
<stop offset="1" stop-color="#EAA34B"/>
</radialGradient>
<radialGradient id="paint38_radial_201_549" cx="0" cy="0" r="1" gradientUnits="userSpaceOnUse" gradientTransform="translate(20.774 9.50935) rotate(-71.3304) scale(1.19476 1.61496)">
<stop offset="0.16" stop-color="#F1907C"/>
<stop offset="1" stop-color="#F1907C" stop-opacity="0"/>
</radialGradient>
<radialGradient id="paint39_radial_201_549" cx="0" cy="0" r="1" gradientUnits="userSpaceOnUse" gradientTransform="translate(21.8891 7.74051) rotate(141.017) scale(1.01297 0.523472)">
<stop stop-color="#FFDE71"/>
<stop offset="1" stop-color="#FFDE71" stop-opacity="0"/>
</radialGradient>
<radialGradient id="paint40_radial_201_549" cx="0" cy="0" r="1" gradientUnits="userSpaceOnUse" gradientTransform="translate(21.3478 8.44171) rotate(180) scale(1.34984 1.40292)">
<stop offset="0.488" stop-color="#E0A444" stop-opacity="0"/>
<stop offset="1" stop-color="#C6924D"/>
</radialGradient>
</defs>
</svg>
