<svg width="236" height="228" viewBox="0 0 236 228" fill="none" xmlns="http://www.w3.org/2000/svg">
<g clip-path="url(#clip0_305_424)">
<path d="M118.743 188.682C114.188 188.682 109.181 187.549 109.181 187.549C95.2954 181.886 81.178 165.358 81.178 165.358C72.2983 153.361 65.6964 137.959 65.6964 127.094C65.6964 116.229 64.3322 107.399 64.3322 93.1296C64.3322 78.8607 62.9679 68.2256 74.8075 55.0892C86.6471 41.9589 117.154 40.3721 117.154 40.3721H119.157" stroke="#2EAC95" stroke-width="1.5" stroke-miterlimit="10"/>
<path d="M80.033 101.512L94.3818 95.855L110.314 102.644L95.1735 106.496L80.033 101.512Z" stroke="#2EAC95" stroke-width="1.5" stroke-miterlimit="10"/>
<path d="M117.896 110.106L112.592 117.658L110.314 137.965L103.03 142.265V148.606H118.311" stroke="#2EAC95" stroke-width="1.5" stroke-miterlimit="10"/>
<path d="M118.311 160.834L113.962 159.023L99.388 164.68L108.846 169.889H118.536" stroke="#2EAC95" stroke-width="1.5" stroke-miterlimit="10"/>
<path d="M113.152 117.846L110.314 102.644L117.555 78.6426L97.6096 43.4912L85.3254 78.4973" stroke="#2EAC95" stroke-width="1.5" stroke-miterlimit="10"/>
<path d="M64.4174 99.513L73.7416 56.3005L94.3817 95.855L108.962 63.4955" stroke="#2EAC95" stroke-width="1.5" stroke-miterlimit="10"/>
<path d="M118.152 40.4508L108.962 63.4955L85.3254 78.4973L64.2773 100.155L80.0329 101.512" stroke="#2EAC95" stroke-width="1.5" stroke-miterlimit="10"/>
<path d="M103.03 142.265L95.1735 106.496L67.091 136.881L103.03 142.265Z" stroke="#2EAC95" stroke-width="1.5" stroke-miterlimit="10"/>
<path d="M99.388 164.68L81.9331 166.225L103.03 148.606L99.723 164.68" stroke="#2EAC95" stroke-width="1.5" stroke-miterlimit="10"/>
<path d="M108.846 169.889L109.175 187.549L99.723 164.68H118.536" stroke="#2EAC95" stroke-width="1.5" stroke-miterlimit="10"/>
<path d="M119.151 40.3842C119.151 40.3842 149.658 41.971 161.497 55.1013C173.337 68.2316 171.972 78.8728 171.972 93.1417C171.972 107.411 170.608 116.235 170.608 127.106C170.608 137.977 164.006 153.373 155.127 165.371C155.127 165.371 141.009 181.899 127.123 187.561C127.123 187.561 122.117 188.694 117.562 188.694" stroke="#2EAC95" stroke-width="1.5" stroke-miterlimit="10"/>
<path d="M156.266 101.512L141.923 95.855L125.984 102.644L141.125 106.496L156.266 101.512Z" stroke="#2EAC95" stroke-width="1.5" stroke-miterlimit="10"/>
<path d="M118.402 110.106L123.707 117.658L125.984 137.965L133.268 142.265V148.606H117.988" stroke="#2EAC95" stroke-width="1.5" stroke-miterlimit="10"/>
<path d="M117.988 160.834L122.336 159.023L136.91 164.68L127.452 169.889H117.763" stroke="#2EAC95" stroke-width="1.5" stroke-miterlimit="10"/>
<path d="M123.707 117.658L125.984 102.644L118.743 78.6426L138.689 43.4912L148.86 78.5033" stroke="#2EAC95" stroke-width="1.5" stroke-miterlimit="10"/>
<path d="M141.923 95.855L162.557 56.3005L170.925 100.488" stroke="#2EAC95" stroke-width="1.5" stroke-miterlimit="10"/>
<path d="M156.266 101.512L172.021 100.155L150.973 78.4973L127.336 63.4955L118.152 40.4508" stroke="#2EAC95" stroke-width="1.5" stroke-miterlimit="10"/>
<path d="M133.268 142.265L141.125 106.496L169.207 136.881L133.268 142.265Z" stroke="#2EAC95" stroke-width="1.5" stroke-miterlimit="10"/>
<path d="M136.91 164.68L154.365 166.225L133.268 148.606L136.576 164.68H117.763" stroke="#2EAC95" stroke-width="1.5" stroke-miterlimit="10"/>
<path d="M127.452 169.889L127.123 187.549L136.576 164.68" stroke="#2EAC95" stroke-width="1.5" stroke-miterlimit="10"/>
<path d="M99.6255 43.4912C99.6255 42.3828 98.7241 41.4865 97.6096 41.4865C96.4951 41.4865 95.5998 42.3828 95.5998 43.4912C95.5998 44.5995 96.5012 45.4958 97.6096 45.4958C98.718 45.4958 99.6255 44.5995 99.6255 43.4912Z" fill="#2EAC95"/>
<path d="M73.7416 54.3019C72.6332 54.3019 71.7257 55.1982 71.7257 56.3065C71.7257 57.4149 72.6271 58.3112 73.7416 58.3112C74.8562 58.3112 75.7575 57.4149 75.7575 56.3065C75.7575 55.1982 74.8562 54.3019 73.7416 54.3019Z" fill="#2EAC95"/>
<path d="M108.962 65.5002C110.076 65.5002 110.978 64.6038 110.978 63.4955C110.978 62.3872 110.076 61.4908 108.962 61.4908C107.847 61.4908 106.946 62.3872 106.946 63.4955C106.946 64.6038 107.847 65.5002 108.962 65.5002Z" fill="#2EAC95"/>
<path d="M85.1305 76.4986C84.016 76.4986 83.1147 77.395 83.1147 78.5033C83.1147 79.6116 84.016 80.508 85.1305 80.508C86.2451 80.508 87.1464 79.6116 87.1464 78.5033C87.1464 77.395 86.2451 76.4986 85.1305 76.4986Z" fill="#2EAC95"/>
<path d="M66.2932 100.01C66.2932 98.9014 65.3918 98.005 64.2773 98.005C63.1627 98.005 62.2614 98.9014 62.2614 100.01C62.2614 101.118 63.1627 102.014 64.2773 102.014C65.3918 102.014 66.2932 101.118 66.2932 100.01Z" fill="#2EAC95"/>
<path d="M96.3915 95.4371C96.3915 94.3288 95.4902 93.4324 94.3756 93.4324C93.2611 93.4324 92.3597 94.3288 92.3597 95.4371C92.3597 96.5454 93.2611 97.4418 94.3756 97.4418C95.4902 97.4418 96.3915 96.5454 96.3915 95.4371Z" fill="#2EAC95"/>
<path d="M82.664 101.512C82.664 100.403 81.7626 99.507 80.6481 99.507C79.5335 99.507 78.6322 100.403 78.6322 101.512C78.6322 102.62 79.5335 103.516 80.6481 103.516C81.7626 103.516 82.664 102.62 82.664 101.512Z" fill="#2EAC95"/>
<path d="M95.1735 104.491C94.065 104.491 93.1576 105.388 93.1576 106.496C93.1576 107.604 94.059 108.501 95.1735 108.501C96.288 108.501 97.1894 107.604 97.1894 106.496C97.1894 105.388 96.288 104.491 95.1735 104.491Z" fill="#2EAC95"/>
<path d="M108.115 102.493C108.115 103.601 109.017 104.497 110.131 104.497C111.246 104.497 112.147 103.601 112.147 102.493C112.147 101.384 111.246 100.488 110.131 100.488C109.017 100.488 108.115 101.384 108.115 102.493Z" fill="#2EAC95"/>
<path d="M110.673 117.658C110.673 118.766 111.575 119.663 112.689 119.663C113.804 119.663 114.705 118.766 114.705 117.658C114.705 116.55 113.804 115.653 112.689 115.653C111.575 115.653 110.673 116.55 110.673 117.658Z" fill="#2EAC95"/>
<path d="M103.03 140.267C101.915 140.267 101.014 141.163 101.014 142.271C101.014 143.38 101.915 144.276 103.03 144.276C104.145 144.276 105.046 143.38 105.046 142.271C105.046 141.163 104.145 140.267 103.03 140.267Z" fill="#2EAC95"/>
<path d="M110.369 135.512C109.26 135.512 108.353 136.409 108.353 137.517C108.353 138.625 109.254 139.522 110.369 139.522C111.483 139.522 112.385 138.625 112.385 137.517C112.385 136.409 111.483 135.512 110.369 135.512Z" fill="#2EAC95"/>
<path d="M67.091 134.883C65.9765 134.883 65.0751 135.779 65.0751 136.887C65.0751 137.996 65.9765 138.892 67.091 138.892C68.2055 138.892 69.1069 137.996 69.1069 136.887C69.1069 135.779 68.2055 134.883 67.091 134.883Z" fill="#2EAC95"/>
<path d="M81.4703 164.22C80.3557 164.22 79.4544 165.116 79.4544 166.225C79.4544 167.333 80.3557 168.229 81.4703 168.229C82.5848 168.229 83.4862 167.333 83.4862 166.225C83.4862 165.116 82.5848 164.22 81.4703 164.22Z" fill="#2EAC95"/>
<path d="M100.21 162.682C99.1017 162.682 98.1943 163.578 98.1943 164.686C98.1943 165.795 99.0956 166.691 100.21 166.691C101.325 166.691 102.226 165.795 102.226 164.686C102.226 163.578 101.325 162.682 100.21 162.682Z" fill="#2EAC95"/>
<path d="M113.853 157.019C112.738 157.019 111.837 157.915 111.837 159.023C111.837 160.132 112.738 161.028 113.853 161.028C114.967 161.028 115.868 160.132 115.868 159.023C115.868 157.915 114.967 157.019 113.853 157.019Z" fill="#2EAC95"/>
<path d="M108.353 171.893C109.467 171.893 110.369 170.997 110.369 169.889C110.369 168.78 109.467 167.884 108.353 167.884C107.238 167.884 106.337 168.78 106.337 169.889C106.337 170.997 107.238 171.893 108.353 171.893Z" fill="#2EAC95"/>
<path d="M108.846 185.551C107.732 185.551 106.83 186.447 106.83 187.555C106.83 188.664 107.732 189.56 108.846 189.56C109.961 189.56 110.862 188.664 110.862 187.555C110.862 186.447 109.961 185.551 108.846 185.551Z" fill="#2EAC95"/>
<path d="M117.854 42.4555C117.903 42.4555 117.951 42.4434 118 42.4434C118.049 42.4434 118.097 42.4555 118.146 42.4555C119.261 42.4555 120.162 41.5592 120.162 40.4508C120.162 39.3425 119.261 38.4462 118.146 38.4462C118.097 38.4462 118.049 38.4583 118 38.4583C117.951 38.4583 117.903 38.4462 117.854 38.4462C116.739 38.4462 115.838 39.3425 115.838 40.4508C115.838 41.5592 116.739 42.4555 117.854 42.4555Z" fill="#2EAC95"/>
<path d="M140.406 43.4912C140.406 42.3828 139.505 41.4865 138.39 41.4865C137.276 41.4865 136.375 42.3828 136.375 43.4912C136.375 44.5995 137.276 45.4958 138.39 45.4958C139.505 45.4958 140.406 44.5995 140.406 43.4912Z" fill="#2EAC95"/>
<path d="M117.854 80.5019C117.903 80.5019 117.951 80.4898 118 80.4898C118.049 80.4898 118.097 80.5019 118.146 80.5019C119.261 80.5019 120.162 79.6056 120.162 78.4973C120.162 77.3889 119.261 76.4926 118.146 76.4926C118.097 76.4926 118.049 76.5047 118 76.5047C117.951 76.5047 117.903 76.4926 117.854 76.4926C116.739 76.4926 115.838 77.3889 115.838 78.4973C115.838 79.6056 116.739 80.5019 117.854 80.5019Z" fill="#2EAC95"/>
<path d="M162.258 54.3019C161.144 54.3019 160.242 55.1982 160.242 56.3065C160.242 57.4149 161.144 58.3112 162.258 58.3112C163.373 58.3112 164.274 57.4149 164.274 56.3065C164.274 55.1982 163.373 54.3019 162.258 54.3019Z" fill="#2EAC95"/>
<path d="M127.038 65.5002C128.153 65.5002 129.054 64.6038 129.054 63.4955C129.054 62.3872 128.153 61.4908 127.038 61.4908C125.924 61.4908 125.022 62.3872 125.022 63.4955C125.022 64.6038 125.924 65.5002 127.038 65.5002Z" fill="#2EAC95"/>
<path d="M150.869 76.4986C149.755 76.4986 148.854 77.395 148.854 78.5033C148.854 79.6116 149.755 80.508 150.869 80.508C151.984 80.508 152.885 79.6116 152.885 78.5033C152.885 77.395 151.984 76.4986 150.869 76.4986Z" fill="#2EAC95"/>
<path d="M171.729 98.005C170.614 98.005 169.713 98.9014 169.713 100.01C169.713 101.118 170.614 102.014 171.729 102.014C172.843 102.014 173.739 101.118 173.739 100.01C173.739 98.9014 172.837 98.005 171.729 98.005Z" fill="#2EAC95"/>
<path d="M141.624 93.4324C140.51 93.4324 139.608 94.3288 139.608 95.4371C139.608 96.5454 140.51 97.4418 141.624 97.4418C142.739 97.4418 143.64 96.5454 143.64 95.4371C143.64 94.3288 142.739 93.4324 141.624 93.4324Z" fill="#2EAC95"/>
<path d="M155.352 99.513C154.237 99.513 153.336 100.409 153.336 101.518C153.336 102.626 154.237 103.522 155.352 103.522C156.466 103.522 157.368 102.626 157.368 101.518C157.368 100.409 156.466 99.513 155.352 99.513Z" fill="#2EAC95"/>
<path d="M140.827 104.491C139.712 104.491 138.811 105.388 138.811 106.496C138.811 107.604 139.712 108.501 140.827 108.501C141.941 108.501 142.842 107.604 142.842 106.496C142.842 105.388 141.941 104.491 140.827 104.491Z" fill="#2EAC95"/>
<path d="M125.875 104.497C126.983 104.497 127.885 103.601 127.885 102.493C127.885 101.384 126.983 100.488 125.875 100.488C124.766 100.488 123.859 101.384 123.859 102.493C123.859 103.601 124.76 104.497 125.875 104.497Z" fill="#2EAC95"/>
<path d="M118.012 108.107C118.012 108.107 118.006 108.107 118 108.107C118 108.107 117.994 108.107 117.988 108.107C116.873 108.107 115.972 109.003 115.972 110.112C115.972 111.22 116.873 112.116 117.988 112.116H118C118 112.116 118.006 112.116 118.012 112.116C119.127 112.116 120.028 111.22 120.028 110.112C120.028 109.003 119.127 108.107 118.012 108.107Z" fill="#2EAC95"/>
<path d="M123.317 119.657C124.431 119.657 125.333 118.76 125.333 117.652C125.333 116.544 124.431 115.647 123.317 115.647C122.202 115.647 121.301 116.544 121.301 117.652C121.301 118.76 122.202 119.657 123.317 119.657Z" fill="#2EAC95"/>
<path d="M134.986 142.265C134.986 141.157 134.085 140.261 132.97 140.261C131.855 140.261 130.954 141.157 130.954 142.265C130.954 143.374 131.855 144.27 132.97 144.27C134.085 144.27 134.986 143.374 134.986 142.265Z" fill="#2EAC95"/>
<path d="M127.647 137.517C127.647 136.409 126.746 135.512 125.631 135.512C124.517 135.512 123.615 136.409 123.615 137.517C123.615 138.625 124.517 139.522 125.631 139.522C126.746 139.522 127.647 138.625 127.647 137.517Z" fill="#2EAC95"/>
<path d="M168.915 134.883C167.801 134.883 166.899 135.779 166.899 136.887C166.899 137.996 167.801 138.892 168.915 138.892C170.03 138.892 170.931 137.996 170.931 136.887C170.931 135.779 170.03 134.883 168.915 134.883Z" fill="#2EAC95"/>
<path d="M154.536 164.22C153.421 164.22 152.52 165.116 152.52 166.225C152.52 167.333 153.421 168.229 154.536 168.229C155.65 168.229 156.552 167.333 156.552 166.225C156.552 165.116 155.65 164.22 154.536 164.22Z" fill="#2EAC95"/>
<path d="M135.79 162.682C134.675 162.682 133.774 163.578 133.774 164.686C133.774 165.795 134.675 166.691 135.79 166.691C136.904 166.691 137.806 165.795 137.806 164.686C137.806 163.578 136.904 162.682 135.79 162.682Z" fill="#2EAC95"/>
<path d="M122.148 157.019C121.033 157.019 120.132 157.915 120.132 159.023C120.132 160.132 121.033 161.028 122.148 161.028C123.262 161.028 124.163 160.132 124.163 159.023C124.163 157.915 123.262 157.019 122.148 157.019Z" fill="#2EAC95"/>
<path d="M127.653 167.89C126.539 167.89 125.637 168.786 125.637 169.895C125.637 171.003 126.539 171.899 127.653 171.899C128.768 171.899 129.663 171.003 129.663 169.895C129.663 168.786 128.762 167.89 127.653 167.89Z" fill="#2EAC95"/>
<path d="M127.154 185.551C126.039 185.551 125.138 186.447 125.138 187.555C125.138 188.664 126.039 189.56 127.154 189.56C128.268 189.56 129.17 188.664 129.17 187.555C129.17 186.447 128.268 185.551 127.154 185.551Z" fill="#2EAC95"/>
<path d="M10.3353 114H13.6301C13.6301 171.227 60.4525 217.789 118 217.789C175.547 217.789 222.37 171.227 222.37 114C222.37 56.7729 175.554 10.2111 118 10.2111V6.9346C177.368 6.9346 225.665 54.962 225.665 114C225.665 173.038 177.368 221.065 118 221.065C58.6315 221.065 10.3353 173.038 10.3353 114Z" fill="url(#paint0_linear_305_424)"/>
<path d="M186.75 182.371C224.719 144.613 224.719 83.3954 186.75 45.6377C148.78 7.87997 87.2204 7.87998 49.2513 45.6377C11.2822 83.3954 11.2822 144.613 49.2513 182.371C87.2204 220.128 148.78 220.128 186.75 182.371Z" stroke="#2EAC95" stroke-miterlimit="10"/>
<path d="M103.03 143.349L64.2773 100.155" stroke="#2EAC95" stroke-width="1.5" stroke-miterlimit="10"/>
<path d="M80.6541 166.685L94.5523 107.011" stroke="#2EAC95" stroke-width="1.5" stroke-miterlimit="10"/>
<path d="M127.336 63.4955L141.923 95.855" stroke="#2EAC95" stroke-width="1.5" stroke-miterlimit="10"/>
<path d="M141.125 106.496L154.365 166.225" stroke="#2EAC95" stroke-width="1.5" stroke-miterlimit="10"/>
<path d="M172.021 100.155L133.268 142.265" stroke="#2EAC95" stroke-width="1.5" stroke-miterlimit="10"/>
<path d="M103.03 148.606L113.962 159.023" stroke="#2EAC95" stroke-width="1.5" stroke-miterlimit="10"/>
<path d="M133.268 148.606L122.336 159.023" stroke="#2EAC95" stroke-width="1.5" stroke-miterlimit="10"/>
<path d="M24.5075 0H4.49466H0V4.46964V24.371H4.49466V4.46964H24.5075V0Z" fill="#2EAC95"/>
<path d="M211.499 0H231.505H236V4.46964V24.371H231.505V4.46964H211.499V0Z" fill="#2EAC95"/>
<path d="M211.499 228H231.505H236V223.53V203.629H231.505V223.53H211.499V228Z" fill="#2EAC95"/>
<path d="M24.5075 228H4.49466H0V223.53V203.629H4.49466V223.53H24.5075V228Z" fill="#2EAC95"/>
</g>
<g clip-path="url(#clip1_305_424)">
<path d="M118.743 188.682C114.188 188.682 109.181 187.549 109.181 187.549C95.2954 181.886 81.178 165.358 81.178 165.358C72.2983 153.361 65.6964 137.959 65.6964 127.094C65.6964 116.229 64.3322 107.399 64.3322 93.1296C64.3322 78.8607 62.9679 68.2256 74.8075 55.0892C86.6471 41.9589 117.154 40.3721 117.154 40.3721H119.157" stroke="#2EAC95" stroke-width="1.5" stroke-miterlimit="10"/>
<path d="M80.033 101.512L94.3818 95.855L110.314 102.644L95.1735 106.496L80.033 101.512Z" stroke="#2EAC95" stroke-width="1.5" stroke-miterlimit="10"/>
<path d="M117.896 110.106L112.592 117.658L110.314 137.965L103.03 142.265V148.606H118.311" stroke="#2EAC95" stroke-width="1.5" stroke-miterlimit="10"/>
<path d="M118.311 160.834L113.962 159.023L99.388 164.68L108.846 169.889H118.536" stroke="#2EAC95" stroke-width="1.5" stroke-miterlimit="10"/>
<path d="M113.152 117.846L110.314 102.644L117.555 78.6426L97.6096 43.4912L85.3254 78.4973" stroke="#2EAC95" stroke-width="1.5" stroke-miterlimit="10"/>
<path d="M64.4174 99.513L73.7416 56.3005L94.3817 95.855L108.962 63.4955" stroke="#2EAC95" stroke-width="1.5" stroke-miterlimit="10"/>
<path d="M118.152 40.4508L108.962 63.4955L85.3254 78.4973L64.2773 100.155L80.0329 101.512" stroke="#2EAC95" stroke-width="1.5" stroke-miterlimit="10"/>
<path d="M103.03 142.265L95.1735 106.496L67.091 136.881L103.03 142.265Z" stroke="#2EAC95" stroke-width="1.5" stroke-miterlimit="10"/>
<path d="M99.388 164.68L81.9331 166.225L103.03 148.606L99.723 164.68" stroke="#2EAC95" stroke-width="1.5" stroke-miterlimit="10"/>
<path d="M108.846 169.889L109.175 187.549L99.723 164.68H118.536" stroke="#2EAC95" stroke-width="1.5" stroke-miterlimit="10"/>
<path d="M119.151 40.3842C119.151 40.3842 149.658 41.971 161.497 55.1013C173.337 68.2316 171.972 78.8728 171.972 93.1417C171.972 107.411 170.608 116.235 170.608 127.106C170.608 137.977 164.006 153.373 155.127 165.371C155.127 165.371 141.009 181.899 127.123 187.561C127.123 187.561 122.117 188.694 117.562 188.694" stroke="#2EAC95" stroke-width="1.5" stroke-miterlimit="10"/>
<path d="M156.266 101.512L141.923 95.855L125.984 102.644L141.125 106.496L156.266 101.512Z" stroke="#2EAC95" stroke-width="1.5" stroke-miterlimit="10"/>
<path d="M118.402 110.106L123.707 117.658L125.984 137.965L133.268 142.265V148.606H117.988" stroke="#2EAC95" stroke-width="1.5" stroke-miterlimit="10"/>
<path d="M117.988 160.834L122.336 159.023L136.91 164.68L127.452 169.889H117.763" stroke="#2EAC95" stroke-width="1.5" stroke-miterlimit="10"/>
<path d="M123.707 117.658L125.984 102.644L118.743 78.6426L138.689 43.4912L148.86 78.5033" stroke="#2EAC95" stroke-width="1.5" stroke-miterlimit="10"/>
<path d="M141.923 95.855L162.557 56.3005L170.925 100.488" stroke="#2EAC95" stroke-width="1.5" stroke-miterlimit="10"/>
<path d="M156.266 101.512L172.021 100.155L150.973 78.4973L127.336 63.4955L118.152 40.4508" stroke="#2EAC95" stroke-width="1.5" stroke-miterlimit="10"/>
<path d="M133.268 142.265L141.125 106.496L169.207 136.881L133.268 142.265Z" stroke="#2EAC95" stroke-width="1.5" stroke-miterlimit="10"/>
<path d="M136.91 164.68L154.365 166.225L133.268 148.606L136.576 164.68H117.763" stroke="#2EAC95" stroke-width="1.5" stroke-miterlimit="10"/>
<path d="M127.452 169.889L127.123 187.549L136.576 164.68" stroke="#2EAC95" stroke-width="1.5" stroke-miterlimit="10"/>
<path d="M99.6255 43.4912C99.6255 42.3828 98.7241 41.4865 97.6096 41.4865C96.4951 41.4865 95.5998 42.3828 95.5998 43.4912C95.5998 44.5995 96.5012 45.4958 97.6096 45.4958C98.718 45.4958 99.6255 44.5995 99.6255 43.4912Z" fill="#2EAC95"/>
<path d="M73.7416 54.3019C72.6332 54.3019 71.7257 55.1982 71.7257 56.3065C71.7257 57.4149 72.6271 58.3112 73.7416 58.3112C74.8562 58.3112 75.7575 57.4149 75.7575 56.3065C75.7575 55.1982 74.8562 54.3019 73.7416 54.3019Z" fill="#2EAC95"/>
<path d="M108.962 65.5002C110.076 65.5002 110.978 64.6038 110.978 63.4955C110.978 62.3872 110.076 61.4908 108.962 61.4908C107.847 61.4908 106.946 62.3872 106.946 63.4955C106.946 64.6038 107.847 65.5002 108.962 65.5002Z" fill="#2EAC95"/>
<path d="M85.1305 76.4986C84.016 76.4986 83.1147 77.395 83.1147 78.5033C83.1147 79.6116 84.016 80.508 85.1305 80.508C86.2451 80.508 87.1464 79.6116 87.1464 78.5033C87.1464 77.395 86.2451 76.4986 85.1305 76.4986Z" fill="#2EAC95"/>
<path d="M66.2932 100.01C66.2932 98.9014 65.3918 98.005 64.2773 98.005C63.1627 98.005 62.2614 98.9014 62.2614 100.01C62.2614 101.118 63.1627 102.014 64.2773 102.014C65.3918 102.014 66.2932 101.118 66.2932 100.01Z" fill="#2EAC95"/>
<path d="M96.3915 95.4371C96.3915 94.3288 95.4902 93.4324 94.3756 93.4324C93.2611 93.4324 92.3597 94.3288 92.3597 95.4371C92.3597 96.5454 93.2611 97.4418 94.3756 97.4418C95.4902 97.4418 96.3915 96.5454 96.3915 95.4371Z" fill="#2EAC95"/>
<path d="M82.664 101.512C82.664 100.403 81.7626 99.507 80.6481 99.507C79.5335 99.507 78.6322 100.403 78.6322 101.512C78.6322 102.62 79.5335 103.516 80.6481 103.516C81.7626 103.516 82.664 102.62 82.664 101.512Z" fill="#2EAC95"/>
<path d="M95.1735 104.491C94.065 104.491 93.1576 105.388 93.1576 106.496C93.1576 107.604 94.059 108.501 95.1735 108.501C96.288 108.501 97.1894 107.604 97.1894 106.496C97.1894 105.388 96.288 104.491 95.1735 104.491Z" fill="#2EAC95"/>
<path d="M108.115 102.493C108.115 103.601 109.017 104.497 110.131 104.497C111.246 104.497 112.147 103.601 112.147 102.493C112.147 101.384 111.246 100.488 110.131 100.488C109.017 100.488 108.115 101.384 108.115 102.493Z" fill="#2EAC95"/>
<path d="M110.673 117.658C110.673 118.766 111.575 119.663 112.689 119.663C113.804 119.663 114.705 118.766 114.705 117.658C114.705 116.55 113.804 115.653 112.689 115.653C111.575 115.653 110.673 116.55 110.673 117.658Z" fill="#2EAC95"/>
<path d="M103.03 140.267C101.915 140.267 101.014 141.163 101.014 142.271C101.014 143.38 101.915 144.276 103.03 144.276C104.145 144.276 105.046 143.38 105.046 142.271C105.046 141.163 104.145 140.267 103.03 140.267Z" fill="#2EAC95"/>
<path d="M110.369 135.512C109.26 135.512 108.353 136.409 108.353 137.517C108.353 138.625 109.254 139.522 110.369 139.522C111.483 139.522 112.385 138.625 112.385 137.517C112.385 136.409 111.483 135.512 110.369 135.512Z" fill="#2EAC95"/>
<path d="M67.091 134.883C65.9765 134.883 65.0751 135.779 65.0751 136.887C65.0751 137.996 65.9765 138.892 67.091 138.892C68.2055 138.892 69.1069 137.996 69.1069 136.887C69.1069 135.779 68.2055 134.883 67.091 134.883Z" fill="#2EAC95"/>
<path d="M81.4703 164.22C80.3557 164.22 79.4544 165.116 79.4544 166.225C79.4544 167.333 80.3557 168.229 81.4703 168.229C82.5848 168.229 83.4862 167.333 83.4862 166.225C83.4862 165.116 82.5848 164.22 81.4703 164.22Z" fill="#2EAC95"/>
<path d="M100.21 162.682C99.1017 162.682 98.1943 163.578 98.1943 164.686C98.1943 165.795 99.0956 166.691 100.21 166.691C101.325 166.691 102.226 165.795 102.226 164.686C102.226 163.578 101.325 162.682 100.21 162.682Z" fill="#2EAC95"/>
<path d="M113.853 157.019C112.738 157.019 111.837 157.915 111.837 159.023C111.837 160.132 112.738 161.028 113.853 161.028C114.967 161.028 115.868 160.132 115.868 159.023C115.868 157.915 114.967 157.019 113.853 157.019Z" fill="#2EAC95"/>
<path d="M108.353 171.893C109.467 171.893 110.369 170.997 110.369 169.889C110.369 168.78 109.467 167.884 108.353 167.884C107.238 167.884 106.337 168.78 106.337 169.889C106.337 170.997 107.238 171.893 108.353 171.893Z" fill="#2EAC95"/>
<path d="M108.846 185.551C107.732 185.551 106.83 186.447 106.83 187.555C106.83 188.664 107.732 189.56 108.846 189.56C109.961 189.56 110.862 188.664 110.862 187.555C110.862 186.447 109.961 185.551 108.846 185.551Z" fill="#2EAC95"/>
<path d="M117.854 42.4555C117.903 42.4555 117.951 42.4434 118 42.4434C118.049 42.4434 118.097 42.4555 118.146 42.4555C119.261 42.4555 120.162 41.5592 120.162 40.4508C120.162 39.3425 119.261 38.4462 118.146 38.4462C118.097 38.4462 118.049 38.4583 118 38.4583C117.951 38.4583 117.903 38.4462 117.854 38.4462C116.739 38.4462 115.838 39.3425 115.838 40.4508C115.838 41.5592 116.739 42.4555 117.854 42.4555Z" fill="#2EAC95"/>
<path d="M140.406 43.4912C140.406 42.3828 139.505 41.4865 138.39 41.4865C137.276 41.4865 136.375 42.3828 136.375 43.4912C136.375 44.5995 137.276 45.4958 138.39 45.4958C139.505 45.4958 140.406 44.5995 140.406 43.4912Z" fill="#2EAC95"/>
<path d="M117.854 80.5019C117.903 80.5019 117.951 80.4898 118 80.4898C118.049 80.4898 118.097 80.5019 118.146 80.5019C119.261 80.5019 120.162 79.6056 120.162 78.4973C120.162 77.3889 119.261 76.4926 118.146 76.4926C118.097 76.4926 118.049 76.5047 118 76.5047C117.951 76.5047 117.903 76.4926 117.854 76.4926C116.739 76.4926 115.838 77.3889 115.838 78.4973C115.838 79.6056 116.739 80.5019 117.854 80.5019Z" fill="#2EAC95"/>
<path d="M162.258 54.3019C161.144 54.3019 160.242 55.1982 160.242 56.3065C160.242 57.4149 161.144 58.3112 162.258 58.3112C163.373 58.3112 164.274 57.4149 164.274 56.3065C164.274 55.1982 163.373 54.3019 162.258 54.3019Z" fill="#2EAC95"/>
<path d="M127.038 65.5002C128.153 65.5002 129.054 64.6038 129.054 63.4955C129.054 62.3872 128.153 61.4908 127.038 61.4908C125.924 61.4908 125.022 62.3872 125.022 63.4955C125.022 64.6038 125.924 65.5002 127.038 65.5002Z" fill="#2EAC95"/>
<path d="M150.869 76.4986C149.755 76.4986 148.854 77.395 148.854 78.5033C148.854 79.6116 149.755 80.508 150.869 80.508C151.984 80.508 152.885 79.6116 152.885 78.5033C152.885 77.395 151.984 76.4986 150.869 76.4986Z" fill="#2EAC95"/>
<path d="M171.729 98.005C170.614 98.005 169.713 98.9014 169.713 100.01C169.713 101.118 170.614 102.014 171.729 102.014C172.843 102.014 173.739 101.118 173.739 100.01C173.739 98.9014 172.837 98.005 171.729 98.005Z" fill="#2EAC95"/>
<path d="M141.624 93.4324C140.51 93.4324 139.608 94.3288 139.608 95.4371C139.608 96.5454 140.51 97.4418 141.624 97.4418C142.739 97.4418 143.64 96.5454 143.64 95.4371C143.64 94.3288 142.739 93.4324 141.624 93.4324Z" fill="#2EAC95"/>
<path d="M155.352 99.513C154.237 99.513 153.336 100.409 153.336 101.518C153.336 102.626 154.237 103.522 155.352 103.522C156.466 103.522 157.368 102.626 157.368 101.518C157.368 100.409 156.466 99.513 155.352 99.513Z" fill="#2EAC95"/>
<path d="M140.827 104.491C139.712 104.491 138.811 105.388 138.811 106.496C138.811 107.604 139.712 108.501 140.827 108.501C141.941 108.501 142.842 107.604 142.842 106.496C142.842 105.388 141.941 104.491 140.827 104.491Z" fill="#2EAC95"/>
<path d="M125.875 104.497C126.983 104.497 127.885 103.601 127.885 102.493C127.885 101.384 126.983 100.488 125.875 100.488C124.766 100.488 123.859 101.384 123.859 102.493C123.859 103.601 124.76 104.497 125.875 104.497Z" fill="#2EAC95"/>
<path d="M118.012 108.107C118.012 108.107 118.006 108.107 118 108.107C118 108.107 117.994 108.107 117.988 108.107C116.873 108.107 115.972 109.003 115.972 110.112C115.972 111.22 116.873 112.116 117.988 112.116H118C118 112.116 118.006 112.116 118.012 112.116C119.127 112.116 120.028 111.22 120.028 110.112C120.028 109.003 119.127 108.107 118.012 108.107Z" fill="#2EAC95"/>
<path d="M123.317 119.657C124.431 119.657 125.333 118.76 125.333 117.652C125.333 116.544 124.431 115.647 123.317 115.647C122.202 115.647 121.301 116.544 121.301 117.652C121.301 118.76 122.202 119.657 123.317 119.657Z" fill="#2EAC95"/>
<path d="M134.986 142.265C134.986 141.157 134.085 140.261 132.97 140.261C131.855 140.261 130.954 141.157 130.954 142.265C130.954 143.374 131.855 144.27 132.97 144.27C134.085 144.27 134.986 143.374 134.986 142.265Z" fill="#2EAC95"/>
<path d="M127.647 137.517C127.647 136.409 126.746 135.512 125.631 135.512C124.517 135.512 123.615 136.409 123.615 137.517C123.615 138.625 124.517 139.522 125.631 139.522C126.746 139.522 127.647 138.625 127.647 137.517Z" fill="#2EAC95"/>
<path d="M168.915 134.883C167.801 134.883 166.899 135.779 166.899 136.887C166.899 137.996 167.801 138.892 168.915 138.892C170.03 138.892 170.931 137.996 170.931 136.887C170.931 135.779 170.03 134.883 168.915 134.883Z" fill="#2EAC95"/>
<path d="M154.536 164.22C153.421 164.22 152.52 165.116 152.52 166.225C152.52 167.333 153.421 168.229 154.536 168.229C155.65 168.229 156.552 167.333 156.552 166.225C156.552 165.116 155.65 164.22 154.536 164.22Z" fill="#2EAC95"/>
<path d="M135.79 162.682C134.675 162.682 133.774 163.578 133.774 164.686C133.774 165.795 134.675 166.691 135.79 166.691C136.904 166.691 137.806 165.795 137.806 164.686C137.806 163.578 136.904 162.682 135.79 162.682Z" fill="#2EAC95"/>
<path d="M122.148 157.019C121.033 157.019 120.132 157.915 120.132 159.023C120.132 160.132 121.033 161.028 122.148 161.028C123.262 161.028 124.163 160.132 124.163 159.023C124.163 157.915 123.262 157.019 122.148 157.019Z" fill="#2EAC95"/>
<path d="M127.653 167.89C126.539 167.89 125.637 168.786 125.637 169.895C125.637 171.003 126.539 171.899 127.653 171.899C128.768 171.899 129.663 171.003 129.663 169.895C129.663 168.786 128.762 167.89 127.653 167.89Z" fill="#2EAC95"/>
<path d="M127.154 185.551C126.039 185.551 125.138 186.447 125.138 187.555C125.138 188.664 126.039 189.56 127.154 189.56C128.268 189.56 129.17 188.664 129.17 187.555C129.17 186.447 128.268 185.551 127.154 185.551Z" fill="#2EAC95"/>
<path d="M10.3353 114H13.6301C13.6301 171.227 60.4525 217.789 118 217.789C175.547 217.789 222.37 171.227 222.37 114C222.37 56.7729 175.554 10.2111 118 10.2111V6.9346C177.368 6.9346 225.665 54.962 225.665 114C225.665 173.038 177.368 221.065 118 221.065C58.6315 221.065 10.3353 173.038 10.3353 114Z" fill="url(#paint1_linear_305_424)"/>
<path d="M186.75 182.371C224.719 144.613 224.719 83.3954 186.75 45.6377C148.78 7.87997 87.2204 7.87998 49.2513 45.6377C11.2822 83.3954 11.2822 144.613 49.2513 182.371C87.2204 220.128 148.78 220.128 186.75 182.371Z" stroke="#2EAC95" stroke-miterlimit="10"/>
<path d="M103.03 143.349L64.2773 100.155" stroke="#2EAC95" stroke-width="1.5" stroke-miterlimit="10"/>
<path d="M80.6541 166.685L94.5523 107.011" stroke="#2EAC95" stroke-width="1.5" stroke-miterlimit="10"/>
<path d="M127.336 63.4955L141.923 95.855" stroke="#2EAC95" stroke-width="1.5" stroke-miterlimit="10"/>
<path d="M141.125 106.496L154.365 166.225" stroke="#2EAC95" stroke-width="1.5" stroke-miterlimit="10"/>
<path d="M172.021 100.155L133.268 142.265" stroke="#2EAC95" stroke-width="1.5" stroke-miterlimit="10"/>
<path d="M103.03 148.606L113.962 159.023" stroke="#2EAC95" stroke-width="1.5" stroke-miterlimit="10"/>
<path d="M133.268 148.606L122.336 159.023" stroke="#2EAC95" stroke-width="1.5" stroke-miterlimit="10"/>
<path d="M24.5075 0H4.49466H0V4.46964V24.371H4.49466V4.46964H24.5075V0Z" fill="#2EAC95"/>
<path d="M211.499 0H231.505H236V4.46964V24.371H231.505V4.46964H211.499V0Z" fill="#2EAC95"/>
<path d="M211.499 228H231.505H236V223.53V203.629H231.505V223.53H211.499V228Z" fill="#2EAC95"/>
<path d="M24.5075 228H4.49466H0V223.53V203.629H4.49466V223.53H24.5075V228Z" fill="#2EAC95"/>
</g>
<defs>
<linearGradient id="paint0_linear_305_424" x1="118" y1="6.9346" x2="118" y2="221.071" gradientUnits="userSpaceOnUse">
<stop stop-color="#6D2D8C"/>
<stop offset="1" stop-color="#6D2D8C" stop-opacity="0.3"/>
</linearGradient>
<linearGradient id="paint1_linear_305_424" x1="118" y1="6.9346" x2="118" y2="221.071" gradientUnits="userSpaceOnUse">
<stop stop-color="#2EAC95"/>
<stop offset="1" stop-color="#2EAC95" stop-opacity="0"/>
</linearGradient>
<clipPath id="clip0_305_424">
<rect width="236" height="228" fill="white"/>
</clipPath>
<clipPath id="clip1_305_424">
<rect width="236" height="228" fill="white"/>
</clipPath>
</defs>
</svg>
