<svg width="24" height="24" viewBox="0 0 24 24" fill="none" xmlns="http://www.w3.org/2000/svg">
<circle cx="12" cy="12" r="11.5" fill="white" stroke="white"/>
<path d="M9.57223 15.975L6.49029 12.8931C6.40969 12.8115 6.31371 12.7467 6.2079 12.7025C6.1021 12.6583 5.98857 12.6355 5.8739 12.6355C5.75923 12.6355 5.6457 12.6583 5.53989 12.7025C5.43408 12.7467 5.3381 12.8115 5.25751 12.8931C5.17593 12.9736 5.11117 13.0696 5.06696 13.1754C5.02276 13.2812 5 13.3948 5 13.5094C5 13.6241 5.02276 13.7376 5.06696 13.8435C5.11117 13.9493 5.17593 14.0452 5.25751 14.1258L8.94703 17.8154C9.29045 18.1588 9.8452 18.1588 10.1886 17.8154L19.5225 8.49028C19.6041 8.40969 19.6688 8.31371 19.713 8.2079C19.7572 8.1021 19.78 7.98857 19.78 7.8739C19.78 7.75923 19.7572 7.6457 19.713 7.53989C19.6688 7.43408 19.6041 7.3381 19.5225 7.25751C19.4419 7.17593 19.3459 7.11117 19.2401 7.06696C19.1343 7.02276 19.0208 7 18.9061 7C18.7914 7 18.6779 7.02276 18.5721 7.06696C18.4663 7.11117 18.3703 7.17593 18.2897 7.25751L9.57223 15.975Z" fill="black"/>
</svg>
